<mxfile host="app.diagrams.net" agent="Mozilla/5.0 (X11; Linux x86_64) AppleWebKit/537.36 (KHTML, like Gecko) Chrome/138.0.0.0 Safari/537.36" version="28.0.8">
  <diagram name="Page-1" id="4JZEqgMehZDWBp7Bj4Fi">
    <mxGraphModel dx="2466" dy="952" grid="1" gridSize="10" guides="1" tooltips="1" connect="1" arrows="1" fold="1" page="1" pageScale="1" pageWidth="827" pageHeight="1169" math="0" shadow="0">
      <root>
        <mxCell id="0" />
        <mxCell id="1" parent="0" />
        <mxCell id="Cin48KoS30xc4D2Q6sl0-13" style="edgeStyle=none;curved=1;rounded=0;orthogonalLoop=1;jettySize=auto;html=1;entryX=1;entryY=0.75;entryDx=0;entryDy=0;fontSize=12;startSize=8;endSize=8;" edge="1" parent="1" source="Cin48KoS30xc4D2Q6sl0-1" target="Cin48KoS30xc4D2Q6sl0-9">
          <mxGeometry relative="1" as="geometry" />
        </mxCell>
        <mxCell id="Cin48KoS30xc4D2Q6sl0-38" value="" style="edgeStyle=none;curved=1;rounded=0;orthogonalLoop=1;jettySize=auto;html=1;fontSize=12;startSize=8;endSize=8;" edge="1" parent="1" source="Cin48KoS30xc4D2Q6sl0-1" target="Cin48KoS30xc4D2Q6sl0-37">
          <mxGeometry relative="1" as="geometry" />
        </mxCell>
        <mxCell id="Cin48KoS30xc4D2Q6sl0-41" value="" style="edgeStyle=none;curved=1;rounded=0;orthogonalLoop=1;jettySize=auto;html=1;fontSize=12;startSize=8;endSize=8;" edge="1" parent="1" source="Cin48KoS30xc4D2Q6sl0-1" target="Cin48KoS30xc4D2Q6sl0-40">
          <mxGeometry relative="1" as="geometry" />
        </mxCell>
        <mxCell id="Cin48KoS30xc4D2Q6sl0-1" value="" style="rounded=0;whiteSpace=wrap;html=1;" vertex="1" parent="1">
          <mxGeometry x="310" y="410" width="150" height="80" as="geometry" />
        </mxCell>
        <mxCell id="Cin48KoS30xc4D2Q6sl0-4" style="edgeStyle=none;curved=1;rounded=0;orthogonalLoop=1;jettySize=auto;html=1;fontSize=12;startSize=8;endSize=8;exitX=0.35;exitY=-0.017;exitDx=0;exitDy=0;exitPerimeter=0;" edge="1" parent="1" source="Cin48KoS30xc4D2Q6sl0-1" target="Cin48KoS30xc4D2Q6sl0-3">
          <mxGeometry relative="1" as="geometry" />
        </mxCell>
        <mxCell id="Cin48KoS30xc4D2Q6sl0-2" value="&lt;font style=&quot;font-size: 12px;&quot;&gt;Raspberry Pi Pico W - BitDogLab&lt;/font&gt;" style="text;strokeColor=none;fillColor=none;html=1;align=center;verticalAlign=middle;whiteSpace=wrap;rounded=0;fontSize=16;" vertex="1" parent="1">
          <mxGeometry x="330" y="440" width="120" height="30" as="geometry" />
        </mxCell>
        <mxCell id="Cin48KoS30xc4D2Q6sl0-3" value="BuzzerA(GPIO 21) - Buzzer Passivo" style="rounded=0;whiteSpace=wrap;html=1;" vertex="1" parent="1">
          <mxGeometry x="230" y="110" width="120" height="60" as="geometry" />
        </mxCell>
        <mxCell id="Cin48KoS30xc4D2Q6sl0-5" value="sensor capacitivo(GPIO 4) - TTP223B" style="rounded=0;whiteSpace=wrap;html=1;" vertex="1" parent="1">
          <mxGeometry x="394" y="100" width="140" height="60" as="geometry" />
        </mxCell>
        <mxCell id="Cin48KoS30xc4D2Q6sl0-9" value="Leds RGB(GPIO 11, 12, 13) - 5050 RGB SMD" style="rounded=0;whiteSpace=wrap;html=1;" vertex="1" parent="1">
          <mxGeometry x="60" y="270" width="120" height="60" as="geometry" />
        </mxCell>
        <mxCell id="Cin48KoS30xc4D2Q6sl0-31" style="edgeStyle=none;curved=1;rounded=0;orthogonalLoop=1;jettySize=auto;html=1;entryX=1;entryY=0.25;entryDx=0;entryDy=0;fontSize=12;startSize=8;endSize=8;" edge="1" parent="1" source="Cin48KoS30xc4D2Q6sl0-14" target="Cin48KoS30xc4D2Q6sl0-1">
          <mxGeometry relative="1" as="geometry" />
        </mxCell>
        <mxCell id="Cin48KoS30xc4D2Q6sl0-60" value="" style="edgeStyle=none;curved=1;rounded=0;orthogonalLoop=1;jettySize=auto;html=1;fontSize=12;startSize=8;endSize=8;" edge="1" parent="1" source="Cin48KoS30xc4D2Q6sl0-14" target="Cin48KoS30xc4D2Q6sl0-59">
          <mxGeometry relative="1" as="geometry" />
        </mxCell>
        <mxCell id="Cin48KoS30xc4D2Q6sl0-14" value="extensor I2C((I2C0 SDA-GPIO-0, I2C0 SCL - GPIO-1)" style="rounded=0;whiteSpace=wrap;html=1;" vertex="1" parent="1">
          <mxGeometry x="600" y="400" width="120" height="60" as="geometry" />
        </mxCell>
        <mxCell id="Cin48KoS30xc4D2Q6sl0-17" style="edgeStyle=none;curved=1;rounded=0;orthogonalLoop=1;jettySize=auto;html=1;entryX=-0.017;entryY=0.65;entryDx=0;entryDy=0;entryPerimeter=0;fontSize=12;startSize=8;endSize=8;" edge="1" parent="1" source="Cin48KoS30xc4D2Q6sl0-1" target="Cin48KoS30xc4D2Q6sl0-14">
          <mxGeometry relative="1" as="geometry" />
        </mxCell>
        <mxCell id="Cin48KoS30xc4D2Q6sl0-19" value="acelerometro e giroscopio(I2C) - MPU6050" style="rounded=0;whiteSpace=wrap;html=1;" vertex="1" parent="1">
          <mxGeometry x="580" y="200" width="130" height="80" as="geometry" />
        </mxCell>
        <mxCell id="Cin48KoS30xc4D2Q6sl0-65" style="edgeStyle=none;curved=1;rounded=0;orthogonalLoop=1;jettySize=auto;html=1;entryX=0;entryY=0.5;entryDx=0;entryDy=0;fontSize=12;startSize=8;endSize=8;" edge="1" parent="1" source="Cin48KoS30xc4D2Q6sl0-21" target="Cin48KoS30xc4D2Q6sl0-24">
          <mxGeometry relative="1" as="geometry" />
        </mxCell>
        <mxCell id="Cin48KoS30xc4D2Q6sl0-21" value="Camera(GPIO 0 ao GPIO 15) - OV2640" style="rounded=0;whiteSpace=wrap;html=1;" vertex="1" parent="1">
          <mxGeometry x="-220" y="440" width="210" height="60" as="geometry" />
        </mxCell>
        <mxCell id="Cin48KoS30xc4D2Q6sl0-35" style="edgeStyle=none;curved=1;rounded=0;orthogonalLoop=1;jettySize=auto;html=1;entryX=0;entryY=0.75;entryDx=0;entryDy=0;fontSize=12;startSize=8;endSize=8;" edge="1" parent="1" source="Cin48KoS30xc4D2Q6sl0-24" target="Cin48KoS30xc4D2Q6sl0-1">
          <mxGeometry relative="1" as="geometry" />
        </mxCell>
        <mxCell id="Cin48KoS30xc4D2Q6sl0-24" value="Outra Rasbperry Pi Pico W(MQTT)" style="rounded=0;whiteSpace=wrap;html=1;" vertex="1" parent="1">
          <mxGeometry x="30" y="440" width="120" height="60" as="geometry" />
        </mxCell>
        <mxCell id="Cin48KoS30xc4D2Q6sl0-34" style="edgeStyle=none;curved=1;rounded=0;orthogonalLoop=1;jettySize=auto;html=1;entryX=0.5;entryY=0;entryDx=0;entryDy=0;fontSize=12;startSize=8;endSize=8;" edge="1" parent="1" source="Cin48KoS30xc4D2Q6sl0-32" target="Cin48KoS30xc4D2Q6sl0-14">
          <mxGeometry relative="1" as="geometry" />
        </mxCell>
        <mxCell id="Cin48KoS30xc4D2Q6sl0-32" value="Medidor de distancia a laser(I2C)- VL53L0X&amp;nbsp;" style="whiteSpace=wrap;html=1;rounded=0;" vertex="1" parent="1">
          <mxGeometry x="750" y="210" width="140" height="80" as="geometry" />
        </mxCell>
        <mxCell id="Cin48KoS30xc4D2Q6sl0-37" value="modulo GPS(UART1 TX- GPO 8, UART1 RX - GPIO 9)- GY-NEO6MV2" style="rounded=0;whiteSpace=wrap;html=1;" vertex="1" parent="1">
          <mxGeometry x="585" y="690" width="150" height="80" as="geometry" />
        </mxCell>
        <mxCell id="Cin48KoS30xc4D2Q6sl0-44" value="" style="edgeStyle=none;curved=1;rounded=0;orthogonalLoop=1;jettySize=auto;html=1;fontSize=12;startSize=8;endSize=8;" edge="1" parent="1" source="Cin48KoS30xc4D2Q6sl0-40" target="Cin48KoS30xc4D2Q6sl0-43">
          <mxGeometry relative="1" as="geometry" />
        </mxCell>
        <mxCell id="Cin48KoS30xc4D2Q6sl0-46" value="" style="edgeStyle=none;curved=1;rounded=0;orthogonalLoop=1;jettySize=auto;html=1;fontSize=12;startSize=8;endSize=8;" edge="1" parent="1" source="Cin48KoS30xc4D2Q6sl0-40" target="Cin48KoS30xc4D2Q6sl0-45">
          <mxGeometry relative="1" as="geometry" />
        </mxCell>
        <mxCell id="Cin48KoS30xc4D2Q6sl0-40" value="Ponte H (GPIO 18,19,20,4,16,17,28) - TB6612FNG" style="rounded=0;whiteSpace=wrap;html=1;" vertex="1" parent="1">
          <mxGeometry x="310" y="610" width="150" height="80" as="geometry" />
        </mxCell>
        <mxCell id="Cin48KoS30xc4D2Q6sl0-43" value="motor DC 3-6V( A01, A02)" style="whiteSpace=wrap;html=1;rounded=0;" vertex="1" parent="1">
          <mxGeometry x="190" y="810" width="120" height="60" as="geometry" />
        </mxCell>
        <mxCell id="Cin48KoS30xc4D2Q6sl0-45" value="motor DC 3-6V( B01, B02" style="whiteSpace=wrap;html=1;rounded=0;" vertex="1" parent="1">
          <mxGeometry x="414" y="810" width="120" height="60" as="geometry" />
        </mxCell>
        <mxCell id="Cin48KoS30xc4D2Q6sl0-48" style="edgeStyle=none;curved=1;rounded=0;orthogonalLoop=1;jettySize=auto;html=1;entryX=0;entryY=0.5;entryDx=0;entryDy=0;fontSize=12;startSize=8;endSize=8;" edge="1" parent="1" source="Cin48KoS30xc4D2Q6sl0-47" target="Cin48KoS30xc4D2Q6sl0-40">
          <mxGeometry relative="1" as="geometry" />
        </mxCell>
        <mxCell id="Cin48KoS30xc4D2Q6sl0-47" value="Bateria Litio 7.4V(2x de 3.7V)" style="rounded=0;whiteSpace=wrap;html=1;" vertex="1" parent="1">
          <mxGeometry x="-10" y="810" width="120" height="60" as="geometry" />
        </mxCell>
        <mxCell id="Cin48KoS30xc4D2Q6sl0-49" value="Bateria de Litio 3.7 V da BitDogLab&amp;nbsp;" style="rounded=0;whiteSpace=wrap;html=1;" vertex="1" parent="1">
          <mxGeometry x="50" y="585" width="120" height="60" as="geometry" />
        </mxCell>
        <mxCell id="Cin48KoS30xc4D2Q6sl0-50" style="edgeStyle=none;curved=1;rounded=0;orthogonalLoop=1;jettySize=auto;html=1;entryX=-0.017;entryY=0.864;entryDx=0;entryDy=0;entryPerimeter=0;fontSize=12;startSize=8;endSize=8;" edge="1" parent="1" source="Cin48KoS30xc4D2Q6sl0-49" target="Cin48KoS30xc4D2Q6sl0-1">
          <mxGeometry relative="1" as="geometry" />
        </mxCell>
        <mxCell id="Cin48KoS30xc4D2Q6sl0-51" style="edgeStyle=none;curved=1;rounded=0;orthogonalLoop=1;jettySize=auto;html=1;entryX=0.636;entryY=1.004;entryDx=0;entryDy=0;entryPerimeter=0;fontSize=12;startSize=8;endSize=8;" edge="1" parent="1" source="Cin48KoS30xc4D2Q6sl0-49" target="Cin48KoS30xc4D2Q6sl0-24">
          <mxGeometry relative="1" as="geometry" />
        </mxCell>
        <mxCell id="Cin48KoS30xc4D2Q6sl0-53" style="edgeStyle=none;curved=1;rounded=0;orthogonalLoop=1;jettySize=auto;html=1;entryX=0.333;entryY=0;entryDx=0;entryDy=0;entryPerimeter=0;fontSize=12;startSize=8;endSize=8;" edge="1" parent="1" source="Cin48KoS30xc4D2Q6sl0-19" target="Cin48KoS30xc4D2Q6sl0-14">
          <mxGeometry relative="1" as="geometry" />
        </mxCell>
        <mxCell id="Cin48KoS30xc4D2Q6sl0-56" value="Sensor ultrasonico(GPIO 2, GPIO 3) - HC SR04&amp;nbsp;" style="rounded=0;whiteSpace=wrap;html=1;" vertex="1" parent="1">
          <mxGeometry x="580" y="525" width="120" height="60" as="geometry" />
        </mxCell>
        <mxCell id="Cin48KoS30xc4D2Q6sl0-57" style="edgeStyle=none;curved=1;rounded=0;orthogonalLoop=1;jettySize=auto;html=1;entryX=0.983;entryY=0.864;entryDx=0;entryDy=0;entryPerimeter=0;fontSize=12;startSize=8;endSize=8;" edge="1" parent="1" source="Cin48KoS30xc4D2Q6sl0-56" target="Cin48KoS30xc4D2Q6sl0-1">
          <mxGeometry relative="1" as="geometry" />
        </mxCell>
        <mxCell id="Cin48KoS30xc4D2Q6sl0-62" value="" style="edgeStyle=none;curved=1;rounded=0;orthogonalLoop=1;jettySize=auto;html=1;fontSize=12;startSize=8;endSize=8;" edge="1" parent="1" source="Cin48KoS30xc4D2Q6sl0-59" target="Cin48KoS30xc4D2Q6sl0-61">
          <mxGeometry relative="1" as="geometry" />
        </mxCell>
        <mxCell id="Cin48KoS30xc4D2Q6sl0-59" value="Amplificador de Audio(I2C) - MAX98357&amp;nbsp;" style="whiteSpace=wrap;html=1;rounded=0;" vertex="1" parent="1">
          <mxGeometry x="780" y="400" width="120" height="60" as="geometry" />
        </mxCell>
        <mxCell id="Cin48KoS30xc4D2Q6sl0-61" value="mini-autofalantes - 0.5W" style="whiteSpace=wrap;html=1;rounded=0;" vertex="1" parent="1">
          <mxGeometry x="780" y="580" width="120" height="60" as="geometry" />
        </mxCell>
        <mxCell id="Cin48KoS30xc4D2Q6sl0-64" style="edgeStyle=none;curved=1;rounded=0;orthogonalLoop=1;jettySize=auto;html=1;entryX=0.886;entryY=0.058;entryDx=0;entryDy=0;entryPerimeter=0;fontSize=12;startSize=8;endSize=8;" edge="1" parent="1" source="Cin48KoS30xc4D2Q6sl0-5" target="Cin48KoS30xc4D2Q6sl0-1">
          <mxGeometry relative="1" as="geometry" />
        </mxCell>
      </root>
    </mxGraphModel>
  </diagram>
</mxfile>
